<mxfile host="65bd71144e">
    <diagram id="EkO7E2BF0c97FM3MusNO" name="Page-1">
        <mxGraphModel dx="1130" dy="538" grid="1" gridSize="10" guides="1" tooltips="1" connect="1" arrows="1" fold="1" page="1" pageScale="1" pageWidth="850" pageHeight="1100" math="0" shadow="0">
            <root>
                <mxCell id="0"/>
                <mxCell id="1" parent="0"/>
                <mxCell id="4" value="" style="edgeStyle=none;html=1;" edge="1" parent="1" source="2" target="3">
                    <mxGeometry relative="1" as="geometry"/>
                </mxCell>
                <mxCell id="6" value="" style="edgeStyle=none;html=1;endArrow=none;endFill=0;dashed=1;" edge="1" parent="1" source="2" target="5">
                    <mxGeometry relative="1" as="geometry"/>
                </mxCell>
                <mxCell id="2" value="first_time_startup.sh" style="rounded=0;whiteSpace=wrap;html=1;fillColor=#008a00;fontColor=#ffffff;strokeColor=#005700;fontSize=14;fontStyle=2" vertex="1" parent="1">
                    <mxGeometry x="30" y="240" width="140" height="60" as="geometry"/>
                </mxCell>
                <mxCell id="9" value="" style="edgeStyle=none;html=1;fontSize=14;endArrow=none;endFill=0;dashed=1;" edge="1" parent="1" source="3" target="8">
                    <mxGeometry relative="1" as="geometry"/>
                </mxCell>
                <mxCell id="3" value="start.sh" style="rounded=0;whiteSpace=wrap;html=1;fillColor=#008a00;fontColor=#ffffff;strokeColor=#005700;fontSize=14;" vertex="1" parent="1">
                    <mxGeometry x="200" y="240" width="140" height="60" as="geometry"/>
                </mxCell>
                <mxCell id="5" value="Prepares environment and downloads dependancies" style="ellipse;whiteSpace=wrap;html=1;rounded=0;" vertex="1" parent="1">
                    <mxGeometry x="50" y="340" width="100" height="120" as="geometry"/>
                </mxCell>
                <mxCell id="8" value="Activates environment and runs run.py" style="ellipse;whiteSpace=wrap;html=1;rounded=0;" vertex="1" parent="1">
                    <mxGeometry x="220" y="340" width="100" height="120" as="geometry"/>
                </mxCell>
                <mxCell id="11" value="" style="edgeStyle=none;html=1;fontSize=14;" edge="1" parent="1" source="10" target="2">
                    <mxGeometry relative="1" as="geometry"/>
                </mxCell>
                <mxCell id="10" value="First time or &lt;br&gt;after update" style="ellipse;shape=cloud;whiteSpace=wrap;html=1;fontSize=14;fillColor=#647687;strokeColor=#314354;fontColor=#ffffff;" vertex="1" parent="1">
                    <mxGeometry x="40" y="110" width="120" height="80" as="geometry"/>
                </mxCell>
                <mxCell id="13" value="" style="edgeStyle=none;html=1;fontSize=14;" edge="1" parent="1" source="12" target="3">
                    <mxGeometry relative="1" as="geometry"/>
                </mxCell>
                <mxCell id="12" value="After first time" style="ellipse;shape=cloud;whiteSpace=wrap;html=1;fontSize=14;fillColor=#647687;strokeColor=#314354;fontColor=#ffffff;" vertex="1" parent="1">
                    <mxGeometry x="210" y="110" width="120" height="80" as="geometry"/>
                </mxCell>
                <mxCell id="16" value="" style="edgeStyle=none;html=1;" edge="1" parent="1" target="17">
                    <mxGeometry relative="1" as="geometry">
                        <mxPoint x="340" y="270" as="sourcePoint"/>
                    </mxGeometry>
                </mxCell>
                <mxCell id="19" value="" style="edgeStyle=none;html=1;dashed=1;fontSize=14;endArrow=none;endFill=0;" edge="1" parent="1" source="17" target="18">
                    <mxGeometry relative="1" as="geometry"/>
                </mxCell>
                <mxCell id="21" value="" style="edgeStyle=none;html=1;fontSize=12;endArrow=classic;endFill=1;" edge="1" parent="1" source="17" target="20">
                    <mxGeometry relative="1" as="geometry"/>
                </mxCell>
                <mxCell id="17" value="run.py" style="rounded=0;whiteSpace=wrap;html=1;fillColor=#60a917;fontColor=#ffffff;strokeColor=#2D7600;fontSize=14;" vertex="1" parent="1">
                    <mxGeometry x="370" y="240" width="140" height="60" as="geometry"/>
                </mxCell>
                <mxCell id="18" value="invoke _init_ &lt;br&gt;for 'app/' on &lt;br style=&quot;font-size: 12px;&quot;&gt;local network &lt;br style=&quot;font-size: 12px;&quot;&gt;at port 5000" style="ellipse;whiteSpace=wrap;html=1;fontSize=12;rounded=0;" vertex="1" parent="1">
                    <mxGeometry x="390" y="340" width="100" height="120" as="geometry"/>
                </mxCell>
                <mxCell id="23" value="" style="edgeStyle=none;html=1;fontSize=12;endArrow=none;endFill=0;dashed=1;" edge="1" parent="1" source="20" target="22">
                    <mxGeometry relative="1" as="geometry"/>
                </mxCell>
                <mxCell id="20" value="app" style="rounded=0;whiteSpace=wrap;html=1;fillColor=#60a917;fontColor=#ffffff;strokeColor=#2D7600;fontSize=14;" vertex="1" parent="1">
                    <mxGeometry x="590" y="240" width="140" height="60" as="geometry"/>
                </mxCell>
                <mxCell id="22" value="_init_ after starting server importa routes and utils. Interface is read to receive input" style="ellipse;whiteSpace=wrap;html=1;fontSize=12;rounded=0;" vertex="1" parent="1">
                    <mxGeometry x="600" y="340" width="120" height="130" as="geometry"/>
                </mxCell>
            </root>
        </mxGraphModel>
    </diagram>
</mxfile>